<?xml version="1.0" encoding="UTF-8" standalone="no"?>
<!-- Created with Inkscape (http://www.inkscape.org/) -->

<svg
   width="75.644478mm"
   height="13.288999mm"
   viewBox="0 0 75.644477 13.288999"
   version="1.1"
   id="svg1"
   sodipodi:docname="Unnamed document 1"
   xmlns:inkscape="http://www.inkscape.org/namespaces/inkscape"
   xmlns:sodipodi="http://sodipodi.sourceforge.net/DTD/sodipodi-0.dtd"
   xmlns="http://www.w3.org/2000/svg"
   xmlns:svg="http://www.w3.org/2000/svg">
  <sodipodi:namedview
     id="namedview1"
     pagecolor="#1e223d"
     bordercolor="#000000"
     borderopacity="0.25"
     inkscape:showpageshadow="2"
     inkscape:pageopacity="0.0"
     inkscape:pagecheckerboard="0"
     inkscape:deskcolor="#d1d1d1"
     inkscape:document-units="mm" />
  <defs
     id="defs1" />
  <g
     inkscape:label="Layer 1"
     inkscape:groupmode="layer"
     id="layer1"
     transform="translate(-55.349783,-92.10515)">
    <g
       id="g2"
       transform="translate(4.4997587,1.9999998)">
      <path
         d="m 43.216859,162.25305 q -3.504,0 -6.432,-1.248 -2.928,-1.248 -5.088,-3.552 -2.16,-2.352 -3.36,-5.52 -1.152,-3.168 -1.152,-6.96 0,-3.6 1.248,-6.672 1.296,-3.12 3.552,-5.472 2.256,-2.352 5.232,-3.648 2.976,-1.296 6.432,-1.296 2.448,0 4.752,0.768 2.352,0.72 4.224,2.064 1.92,1.296 3.12,2.976 l -3.456,3.6 q -1.392,-1.392 -2.832,-2.304 -1.392,-0.96 -2.88,-1.44 -1.44,-0.48 -2.928,-0.48 -2.352,0 -4.416,0.912 -2.016,0.864 -3.552,2.448 -1.488,1.584 -2.352,3.792 -0.864,2.16 -0.864,4.752 0,2.736 0.816,4.992 0.864,2.208 2.4,3.792 1.536,1.584 3.648,2.448 2.16,0.816 4.752,0.816 1.584,0 3.12,-0.432 1.536,-0.432 2.88,-1.248 1.344,-0.816 2.448,-1.92 l 2.592,4.224 q -1.104,1.296 -3.024,2.352 -1.872,1.056 -4.224,1.68 -2.304,0.576 -4.656,0.576 z m 46.726043,-0.48 v -33.6 h 5.184 v 33.6 z m -21.936,0 v -33.6 h 5.184 v 33.6 z m 2.256,-14.256 v -4.992 h 21.984 v 4.992 z m 40.101988,14.256 v -33.6 h 21.168 v 4.992 h -15.984 v 23.616 h 15.984 v 4.992 z m 2.352,-14.736 v -4.992 h 16.176 v 4.992 z m 37.27001,4.56 -0.288,-5.808 17.616,-17.616 h 6.816 z m -4.32,10.176 v -33.6 h 5.184 v 33.6 z m 22.272,0 -12.864,-17.184 3.84,-3.312 15.504,20.496 z m 18.69402,0 v -33.6 h 21.168 v 4.992 h -15.984 v 23.616 h 15.984 v 4.992 z m 2.352,-14.736 v -4.992 h 16.176 v 4.992 z m 47.01401,15.216 q -3.552,0 -6.576,-1.296 -2.976,-1.296 -5.232,-3.6 -2.208,-2.352 -3.456,-5.472 -1.2,-3.168 -1.2,-6.912 0,-3.744 1.2,-6.864 1.248,-3.168 3.456,-5.472 2.256,-2.352 5.232,-3.648 3.024,-1.296 6.576,-1.296 3.552,0 6.528,1.296 3.024,1.296 5.232,3.648 2.256,2.352 3.456,5.52 1.248,3.12 1.248,6.816 0,3.696 -1.248,6.864 -1.2,3.12 -3.456,5.472 -2.208,2.352 -5.232,3.648 -2.976,1.296 -6.528,1.296 z m 0,-5.04 q 2.448,0 4.464,-0.912 2.064,-0.912 3.552,-2.544 1.488,-1.68 2.304,-3.888 0.864,-2.256 0.864,-4.896 0,-2.64 -0.864,-4.848 -0.816,-2.256 -2.304,-3.888 -1.488,-1.68 -3.552,-2.592 -2.016,-0.912 -4.464,-0.912 -2.448,0 -4.512,0.912 -2.016,0.912 -3.552,2.544 -1.488,1.632 -2.304,3.888 -0.816,2.208 -0.816,4.896 0,2.64 0.816,4.896 0.816,2.256 2.304,3.888 1.536,1.632 3.552,2.544 2.064,0.912 4.512,0.912 z"
         id="text1"
         style="font-size:48px;line-height:0;font-family:Lexend;-inkscape-font-specification:Lexend;letter-spacing:5.83px;white-space:pre;fill:#f7f8ff;stroke:#838699;stroke-width:0"
         transform="matrix(0.26458333,0,0,0.26458333,59.697022,58.518352)"
         aria-label="CHEKEO" />
      <g
         id="g1"
         transform="matrix(0.66445,0,0,0.66445,49.521124,88.77625)"
         style="fill:none;stroke:#34a36b;stroke-opacity:1">
        <path
           d="m 21,12 c 0,4.9706 -4.0294,9 -9,9 -4.97056,0 -9,-4.0294 -9,-9 0,-4.97056 4.02944,-9 9,-9 4.9706,0 9,4.02944 9,9 z"
           stroke="#323232"
           stroke-width="2"
           id="path1"
           style="fill:none;stroke:#34a36b;stroke-opacity:1" />
        <path
           d="m 9,12 1.6828,1.6828 v 0 c 0.1752,0.1752 0.4592,0.1752 0.6344,0 v 0 L 15,10"
           stroke="#323232"
           stroke-width="2"
           stroke-linecap="round"
           stroke-linejoin="round"
           id="path2"
           style="fill:none;stroke:#34a36b;stroke-opacity:1" />
      </g>
    </g>
  </g>
</svg>
